<mxfile host="app.diagrams.net" agent="Mozilla/5.0 (Windows NT 10.0; Win64; x64) AppleWebKit/537.36 (KHTML, like Gecko) Chrome/137.0.0.0 Safari/537.36" version="27.1.6">
  <diagram name="Page-1" id="wuSJqLB3nl6JY8MFXm-J">
    <mxGraphModel dx="4651" dy="2721" grid="1" gridSize="10" guides="1" tooltips="1" connect="1" arrows="1" fold="1" page="1" pageScale="1" pageWidth="850" pageHeight="1100" math="0" shadow="0">
      <root>
        <mxCell id="0" />
        <mxCell id="1" parent="0" />
        <mxCell id="Cs1OVYd5yVLJFfUxwkED-1" value="Forecasting" style="swimlane;fontStyle=0;childLayout=stackLayout;horizontal=1;startSize=40;horizontalStack=0;resizeParent=1;resizeParentMax=0;resizeLast=0;collapsible=1;marginBottom=0;whiteSpace=wrap;html=1;fillColor=#31A354;strokeColor=#31A354;fontColor=#ffffff;container=1;" parent="1" vertex="1">
          <mxGeometry x="980" y="40" width="140" height="100" as="geometry">
            <mxRectangle x="440" y="40" width="120" height="40" as="alternateBounds" />
          </mxGeometry>
        </mxCell>
        <mxCell id="Cs1OVYd5yVLJFfUxwkED-2" value="Reference forecasting" style="text;strokeColor=#31A354;fillColor=#A1D99B;align=left;verticalAlign=middle;spacingLeft=4;spacingRight=4;overflow=hidden;points=[[0,0.5],[1,0.5]];portConstraint=eastwest;rotatable=0;whiteSpace=wrap;html=1;" parent="Cs1OVYd5yVLJFfUxwkED-1" vertex="1">
          <mxGeometry y="40" width="140" height="30" as="geometry" />
        </mxCell>
        <mxCell id="Cs1OVYd5yVLJFfUxwkED-3" value="Age/sex adjustments" style="text;strokeColor=#31A354;fillColor=#A1D99B;align=left;verticalAlign=middle;spacingLeft=4;spacingRight=4;overflow=hidden;points=[[0,0.5],[1,0.5]];portConstraint=eastwest;rotatable=0;whiteSpace=wrap;html=1;" parent="Cs1OVYd5yVLJFfUxwkED-1" vertex="1">
          <mxGeometry y="70" width="140" height="30" as="geometry" />
        </mxCell>
        <mxCell id="Cs1OVYd5yVLJFfUxwkED-13" value="Modeling" style="swimlane;fontStyle=0;childLayout=stackLayout;horizontal=1;startSize=40;horizontalStack=0;resizeParent=1;resizeParentMax=0;resizeLast=0;collapsible=1;marginBottom=0;whiteSpace=wrap;html=1;fillColor=#3182BD;strokeColor=#3182BD;fontColor=#ffffff;container=1;" parent="1" vertex="1">
          <mxGeometry x="740" y="40" width="140" height="130" as="geometry">
            <mxRectangle x="1040" y="40" width="120" height="40" as="alternateBounds" />
          </mxGeometry>
        </mxCell>
        <mxCell id="Cs1OVYd5yVLJFfUxwkED-14" value="Model" style="text;strokeColor=#3182BD;fillColor=#9ECAE1;align=left;verticalAlign=middle;spacingLeft=4;spacingRight=4;overflow=hidden;points=[[0,0.5],[1,0.5]];portConstraint=eastwest;rotatable=0;whiteSpace=wrap;html=1;" parent="Cs1OVYd5yVLJFfUxwkED-13" vertex="1">
          <mxGeometry y="40" width="140" height="30" as="geometry" />
        </mxCell>
        <mxCell id="Cs1OVYd5yVLJFfUxwkED-15" value="Forecasts" style="text;strokeColor=#3182BD;fillColor=#9ECAE1;align=left;verticalAlign=middle;spacingLeft=4;spacingRight=4;overflow=hidden;points=[[0,0.5],[1,0.5]];portConstraint=eastwest;rotatable=0;whiteSpace=wrap;html=1;" parent="Cs1OVYd5yVLJFfUxwkED-13" vertex="1">
          <mxGeometry y="70" width="140" height="30" as="geometry" />
        </mxCell>
        <mxCell id="Cs1OVYd5yVLJFfUxwkED-16" value="Maps" style="text;strokeColor=#3182BD;fillColor=#9ECAE1;align=left;verticalAlign=middle;spacingLeft=4;spacingRight=4;overflow=hidden;points=[[0,0.5],[1,0.5]];portConstraint=eastwest;rotatable=0;whiteSpace=wrap;html=1;" parent="Cs1OVYd5yVLJFfUxwkED-13" vertex="1">
          <mxGeometry y="100" width="140" height="30" as="geometry" />
        </mxCell>
        <mxCell id="Cs1OVYd5yVLJFfUxwkED-17" value="Aggregation" style="swimlane;fontStyle=0;childLayout=stackLayout;horizontal=1;startSize=40;horizontalStack=0;resizeParent=1;resizeParentMax=0;resizeLast=0;collapsible=1;marginBottom=0;whiteSpace=wrap;html=1;fillColor=#54278F;strokeColor=#54278F;fontColor=#ffffff;container=1;" parent="1" vertex="1">
          <mxGeometry x="1180" y="40" width="140" height="100" as="geometry">
            <mxRectangle x="840" y="40" width="120" height="40" as="alternateBounds" />
          </mxGeometry>
        </mxCell>
        <mxCell id="Cs1OVYd5yVLJFfUxwkED-18" value="Input" style="text;strokeColor=#9E9AC8;fillColor=#54278F;align=left;verticalAlign=middle;spacingLeft=4;spacingRight=4;overflow=hidden;points=[[0,0.5],[1,0.5]];portConstraint=eastwest;rotatable=0;whiteSpace=wrap;html=1;opacity=50;" parent="Cs1OVYd5yVLJFfUxwkED-17" vertex="1">
          <mxGeometry y="40" width="140" height="30" as="geometry" />
        </mxCell>
        <mxCell id="Cs1OVYd5yVLJFfUxwkED-19" value="Modeling" style="text;strokeColor=#756BB1;fillColor=#54278F;align=left;verticalAlign=middle;spacingLeft=4;spacingRight=4;overflow=hidden;points=[[0,0.5],[1,0.5]];portConstraint=eastwest;rotatable=0;whiteSpace=wrap;html=1;opacity=50;" parent="Cs1OVYd5yVLJFfUxwkED-17" vertex="1">
          <mxGeometry y="70" width="140" height="30" as="geometry" />
        </mxCell>
        <mxCell id="Cs1OVYd5yVLJFfUxwkED-22" value="Upload" style="swimlane;fontStyle=0;childLayout=stackLayout;horizontal=1;startSize=40;horizontalStack=0;resizeParent=1;resizeParentMax=0;resizeLast=0;collapsible=1;marginBottom=0;whiteSpace=wrap;html=1;fillColor=#DE2D26;strokeColor=#DE2D26;fontColor=#ffffff;container=1;" parent="1" vertex="1">
          <mxGeometry x="1360" y="40" width="360" height="100" as="geometry">
            <mxRectangle x="640" y="40" width="120" height="40" as="alternateBounds" />
          </mxGeometry>
        </mxCell>
        <mxCell id="Cs1OVYd5yVLJFfUxwkED-23" value="&lt;span style=&quot;text-align: center;&quot;&gt;01_combine_as_draws_parallel.ipynb&lt;/span&gt;" style="text;strokeColor=#DE2D26;fillColor=#FC9272;align=left;verticalAlign=middle;spacingLeft=4;spacingRight=4;overflow=hidden;points=[[0,0.5],[1,0.5]];portConstraint=eastwest;rotatable=0;whiteSpace=wrap;html=1;" parent="Cs1OVYd5yVLJFfUxwkED-22" vertex="1">
          <mxGeometry y="40" width="360" height="30" as="geometry" />
        </mxCell>
        <mxCell id="Cs1OVYd5yVLJFfUxwkED-24" value="Upload" style="text;strokeColor=#DE2D26;fillColor=#FC9272;align=left;verticalAlign=middle;spacingLeft=4;spacingRight=4;overflow=hidden;points=[[0,0.5],[1,0.5]];portConstraint=eastwest;rotatable=0;whiteSpace=wrap;html=1;" parent="Cs1OVYd5yVLJFfUxwkED-22" vertex="1">
          <mxGeometry y="70" width="360" height="30" as="geometry" />
        </mxCell>
        <mxCell id="Cs1OVYd5yVLJFfUxwkED-27" value="Data Prep" style="swimlane;fontStyle=0;childLayout=stackLayout;horizontal=1;startSize=40;horizontalStack=0;resizeParent=1;resizeParentMax=0;resizeLast=0;collapsible=1;marginBottom=0;whiteSpace=wrap;html=1;fillColor=#d80073;strokeColor=#A50040;fontColor=#ffffff;" parent="1" vertex="1">
          <mxGeometry x="420" y="40" width="140" height="130" as="geometry">
            <mxRectangle x="40" y="40" width="120" height="40" as="alternateBounds" />
          </mxGeometry>
        </mxCell>
        <mxCell id="Cs1OVYd5yVLJFfUxwkED-29" value="Model_df" style="text;strokeColor=#A50040;fillColor=#d80073;align=left;verticalAlign=middle;spacingLeft=4;spacingRight=4;overflow=hidden;points=[[0,0.5],[1,0.5]];portConstraint=eastwest;rotatable=0;whiteSpace=wrap;html=1;fontColor=#ffffff;opacity=50;" parent="Cs1OVYd5yVLJFfUxwkED-27" vertex="1">
          <mxGeometry y="40" width="140" height="30" as="geometry" />
        </mxCell>
        <mxCell id="Cs1OVYd5yVLJFfUxwkED-28" value="Forecast_draw_df" style="text;strokeColor=#A50040;fillColor=#d80073;align=left;verticalAlign=middle;spacingLeft=4;spacingRight=4;overflow=hidden;points=[[0,0.5],[1,0.5]];portConstraint=eastwest;rotatable=0;whiteSpace=wrap;html=1;fontColor=#ffffff;opacity=50;" parent="Cs1OVYd5yVLJFfUxwkED-27" vertex="1">
          <mxGeometry y="70" width="140" height="30" as="geometry" />
        </mxCell>
        <mxCell id="Cs1OVYd5yVLJFfUxwkED-33" value="Forecast_full_df" style="text;strokeColor=#A50040;fillColor=#d80073;align=left;verticalAlign=middle;spacingLeft=4;spacingRight=4;overflow=hidden;points=[[0,0.5],[1,0.5]];portConstraint=eastwest;rotatable=0;whiteSpace=wrap;html=1;fontColor=#ffffff;opacity=50;" parent="Cs1OVYd5yVLJFfUxwkED-27" vertex="1">
          <mxGeometry y="100" width="140" height="30" as="geometry" />
        </mxCell>
        <mxCell id="P4oIJ3CgS1AJP2-OAXij-1" value="01_forecast_dengue_admin_2s_launcher.r" style="swimlane;fontStyle=0;childLayout=stackLayout;horizontal=1;startSize=40;horizontalStack=0;resizeParent=1;resizeParentMax=0;resizeLast=0;collapsible=1;marginBottom=0;whiteSpace=wrap;html=1;fillColor=#008a00;strokeColor=#005700;fontColor=#ffffff;" vertex="1" parent="1">
          <mxGeometry x="80" y="-440" width="800" height="160" as="geometry" />
        </mxCell>
        <mxCell id="P4oIJ3CgS1AJP2-OAXij-2" value="Input:&amp;nbsp;{FDP}/dengue_forecast_ssp_scenario_{ssp_scenario}_draw_{draw}.parquet" style="text;strokeColor=#82b366;fillColor=#d5e8d4;align=left;verticalAlign=middle;spacingLeft=4;spacingRight=4;overflow=hidden;points=[[0,0.5],[1,0.5]];portConstraint=eastwest;rotatable=0;whiteSpace=wrap;html=1;" vertex="1" parent="P4oIJ3CgS1AJP2-OAXij-1">
          <mxGeometry y="40" width="800" height="40" as="geometry" />
        </mxCell>
        <mxCell id="P4oIJ3CgS1AJP2-OAXij-3" value="Runs: /forecasting/dengue/forecast_dengue_admin_2s_rocket.r" style="text;strokeColor=#82b366;fillColor=#d5e8d4;align=left;verticalAlign=middle;spacingLeft=4;spacingRight=4;overflow=hidden;points=[[0,0.5],[1,0.5]];portConstraint=eastwest;rotatable=0;whiteSpace=wrap;html=1;" vertex="1" parent="P4oIJ3CgS1AJP2-OAXij-1">
          <mxGeometry y="80" width="800" height="40" as="geometry" />
        </mxCell>
        <mxCell id="P4oIJ3CgS1AJP2-OAXij-4" value="Output:&amp;nbsp;{FDP}/dengue_forecast_ssp_scenario_{ssp_scenario}_draw_{draw}_with_predictions.parquet" style="text;strokeColor=#82b366;fillColor=#d5e8d4;align=left;verticalAlign=middle;spacingLeft=4;spacingRight=4;overflow=hidden;points=[[0,0.5],[1,0.5]];portConstraint=eastwest;rotatable=0;whiteSpace=wrap;html=1;" vertex="1" parent="P4oIJ3CgS1AJP2-OAXij-1">
          <mxGeometry y="120" width="800" height="40" as="geometry" />
        </mxCell>
        <mxCell id="P4oIJ3CgS1AJP2-OAXij-5" value="01_forecast_malaria_admin_2s_launcher.r" style="swimlane;fontStyle=0;childLayout=stackLayout;horizontal=1;startSize=40;horizontalStack=0;resizeParent=1;resizeParentMax=0;resizeLast=0;collapsible=1;marginBottom=0;whiteSpace=wrap;html=1;fillColor=#008a00;strokeColor=#005700;fontColor=#ffffff;" vertex="1" parent="1">
          <mxGeometry x="80" y="-240" width="800" height="160" as="geometry" />
        </mxCell>
        <mxCell id="P4oIJ3CgS1AJP2-OAXij-6" value="Input:&amp;nbsp;{FDP}/malaria_forecast_ssp_scenario_{ssp_scenario}_dah_scenario_{dah_scenario_name}_draw_{draw}.parquet" style="text;strokeColor=#82b366;fillColor=#d5e8d4;align=left;verticalAlign=middle;spacingLeft=4;spacingRight=4;overflow=hidden;points=[[0,0.5],[1,0.5]];portConstraint=eastwest;rotatable=0;whiteSpace=wrap;html=1;" vertex="1" parent="P4oIJ3CgS1AJP2-OAXij-5">
          <mxGeometry y="40" width="800" height="40" as="geometry" />
        </mxCell>
        <mxCell id="P4oIJ3CgS1AJP2-OAXij-7" value="Runs: /forecasting/dengue/forecast_malaria_admin_2s_rocket.r" style="text;strokeColor=#82b366;fillColor=#d5e8d4;align=left;verticalAlign=middle;spacingLeft=4;spacingRight=4;overflow=hidden;points=[[0,0.5],[1,0.5]];portConstraint=eastwest;rotatable=0;whiteSpace=wrap;html=1;" vertex="1" parent="P4oIJ3CgS1AJP2-OAXij-5">
          <mxGeometry y="80" width="800" height="40" as="geometry" />
        </mxCell>
        <mxCell id="P4oIJ3CgS1AJP2-OAXij-8" value="Output:&amp;nbsp;{FDP}/dengue_forecast_ssp_scenario_{ssp_scenario}_dah_scenario_{dah_scenario_name}_draw_{draw}_with_predictions.parquet" style="text;strokeColor=#82b366;fillColor=#d5e8d4;align=left;verticalAlign=middle;spacingLeft=4;spacingRight=4;overflow=hidden;points=[[0,0.5],[1,0.5]];portConstraint=eastwest;rotatable=0;whiteSpace=wrap;html=1;" vertex="1" parent="P4oIJ3CgS1AJP2-OAXij-5">
          <mxGeometry y="120" width="800" height="40" as="geometry" />
        </mxCell>
        <mxCell id="P4oIJ3CgS1AJP2-OAXij-9" value="02_as_malaria_shifts_parallel.py" style="swimlane;fontStyle=0;childLayout=stackLayout;horizontal=1;startSize=40;horizontalStack=0;resizeParent=1;resizeParentMax=0;resizeLast=0;collapsible=1;marginBottom=0;whiteSpace=wrap;html=1;fillColor=#008a00;strokeColor=#005700;fontColor=#ffffff;" vertex="1" parent="1">
          <mxGeometry x="920" y="-240" width="800" height="160" as="geometry" />
        </mxCell>
        <mxCell id="P4oIJ3CgS1AJP2-OAXij-10" value="Input:&amp;nbsp;{FDP}/malaria_forecast_ssp_scenario_{ssp_scenario}_dah_scenario_{dah_scenario_name}_draw_{draw}.parquet" style="text;strokeColor=#82b366;fillColor=#d5e8d4;align=left;verticalAlign=middle;spacingLeft=4;spacingRight=4;overflow=hidden;points=[[0,0.5],[1,0.5]];portConstraint=eastwest;rotatable=0;whiteSpace=wrap;html=1;" vertex="1" parent="P4oIJ3CgS1AJP2-OAXij-9">
          <mxGeometry y="40" width="800" height="40" as="geometry" />
        </mxCell>
        <mxCell id="P4oIJ3CgS1AJP2-OAXij-11" value="Runs: /forecasting/dengue/forecast_malaria_admin_2s_rocket.r" style="text;strokeColor=#82b366;fillColor=#d5e8d4;align=left;verticalAlign=middle;spacingLeft=4;spacingRight=4;overflow=hidden;points=[[0,0.5],[1,0.5]];portConstraint=eastwest;rotatable=0;whiteSpace=wrap;html=1;" vertex="1" parent="P4oIJ3CgS1AJP2-OAXij-9">
          <mxGeometry y="80" width="800" height="40" as="geometry" />
        </mxCell>
        <mxCell id="P4oIJ3CgS1AJP2-OAXij-12" value="Output:&amp;nbsp;{FDP}/dengue_forecast_ssp_scenario_{ssp_scenario}_dah_scenario_{dah_scenario_name}_draw_{draw}_with_predictions.parquet" style="text;strokeColor=#82b366;fillColor=#d5e8d4;align=left;verticalAlign=middle;spacingLeft=4;spacingRight=4;overflow=hidden;points=[[0,0.5],[1,0.5]];portConstraint=eastwest;rotatable=0;whiteSpace=wrap;html=1;" vertex="1" parent="P4oIJ3CgS1AJP2-OAXij-9">
          <mxGeometry y="120" width="800" height="40" as="geometry" />
        </mxCell>
        <mxCell id="P4oIJ3CgS1AJP2-OAXij-25" style="edgeStyle=orthogonalEdgeStyle;rounded=0;orthogonalLoop=1;jettySize=auto;html=1;exitX=1;exitY=0.5;exitDx=0;exitDy=0;entryX=0;entryY=0.5;entryDx=0;entryDy=0;" edge="1" parent="1" source="P4oIJ3CgS1AJP2-OAXij-13" target="P4oIJ3CgS1AJP2-OAXij-14">
          <mxGeometry relative="1" as="geometry" />
        </mxCell>
        <mxCell id="P4oIJ3CgS1AJP2-OAXij-13" value="01_forecast_malaria_admin_2s_launcher.r" style="rounded=0;whiteSpace=wrap;html=1;fillColor=#d5e8d4;strokeColor=#82b366;" vertex="1" parent="1">
          <mxGeometry x="200" y="1080" width="320" height="40" as="geometry" />
        </mxCell>
        <mxCell id="P4oIJ3CgS1AJP2-OAXij-24" style="edgeStyle=orthogonalEdgeStyle;rounded=0;orthogonalLoop=1;jettySize=auto;html=1;exitX=1;exitY=0.5;exitDx=0;exitDy=0;entryX=0;entryY=0.5;entryDx=0;entryDy=0;" edge="1" parent="1" source="P4oIJ3CgS1AJP2-OAXij-14" target="P4oIJ3CgS1AJP2-OAXij-16">
          <mxGeometry relative="1" as="geometry" />
        </mxCell>
        <mxCell id="P4oIJ3CgS1AJP2-OAXij-14" value="03_as_malaria_shifts_parallel.py" style="rounded=0;whiteSpace=wrap;html=1;fillColor=#d5e8d4;strokeColor=#82b366;" vertex="1" parent="1">
          <mxGeometry x="560" y="1080" width="320" height="40" as="geometry" />
        </mxCell>
        <mxCell id="P4oIJ3CgS1AJP2-OAXij-20" style="edgeStyle=orthogonalEdgeStyle;rounded=0;orthogonalLoop=1;jettySize=auto;html=1;exitX=1;exitY=0.5;exitDx=0;exitDy=0;entryX=0;entryY=0.5;entryDx=0;entryDy=0;" edge="1" parent="1" source="P4oIJ3CgS1AJP2-OAXij-16" target="P4oIJ3CgS1AJP2-OAXij-17">
          <mxGeometry relative="1" as="geometry" />
        </mxCell>
        <mxCell id="P4oIJ3CgS1AJP2-OAXij-16" value="01_cause_as_aggregation_by_draw_parallel.py" style="rounded=0;whiteSpace=wrap;html=1;fillColor=#e1d5e7;strokeColor=#9673a6;" vertex="1" parent="1">
          <mxGeometry x="920" y="1120" width="320" height="40" as="geometry" />
        </mxCell>
        <mxCell id="P4oIJ3CgS1AJP2-OAXij-17" value="01_combine_as_draws_parallel.ipynb" style="rounded=0;whiteSpace=wrap;html=1;fillColor=#DE2D26;strokeColor=#DE2D26;opacity=50;" vertex="1" parent="1">
          <mxGeometry x="1280" y="1120" width="320" height="40" as="geometry" />
        </mxCell>
        <mxCell id="P4oIJ3CgS1AJP2-OAXij-26" style="edgeStyle=orthogonalEdgeStyle;rounded=0;orthogonalLoop=1;jettySize=auto;html=1;exitX=1;exitY=0.5;exitDx=0;exitDy=0;entryX=0;entryY=0.5;entryDx=0;entryDy=0;" edge="1" parent="1" source="P4oIJ3CgS1AJP2-OAXij-18" target="P4oIJ3CgS1AJP2-OAXij-19">
          <mxGeometry relative="1" as="geometry" />
        </mxCell>
        <mxCell id="P4oIJ3CgS1AJP2-OAXij-18" value="02_forecast_dengue_admin_2s_launcher.r" style="rounded=0;whiteSpace=wrap;html=1;fillColor=#d5e8d4;strokeColor=#82b366;" vertex="1" parent="1">
          <mxGeometry x="200" y="1160" width="320" height="40" as="geometry" />
        </mxCell>
        <mxCell id="P4oIJ3CgS1AJP2-OAXij-23" style="edgeStyle=orthogonalEdgeStyle;rounded=0;orthogonalLoop=1;jettySize=auto;html=1;exitX=1;exitY=0.5;exitDx=0;exitDy=0;entryX=0;entryY=0.5;entryDx=0;entryDy=0;" edge="1" parent="1" source="P4oIJ3CgS1AJP2-OAXij-19" target="P4oIJ3CgS1AJP2-OAXij-16">
          <mxGeometry relative="1" as="geometry" />
        </mxCell>
        <mxCell id="P4oIJ3CgS1AJP2-OAXij-19" value="04_as_dengue_shifts_parallel.py" style="rounded=0;whiteSpace=wrap;html=1;fillColor=#d5e8d4;strokeColor=#82b366;" vertex="1" parent="1">
          <mxGeometry x="560" y="1160" width="320" height="40" as="geometry" />
        </mxCell>
        <mxCell id="P4oIJ3CgS1AJP2-OAXij-27" value="08_forecasted_malaria_dataframes_parallel.py" style="rounded=0;whiteSpace=wrap;html=1;fillColor=#D80073;strokeColor=#56517e;opacity=50;" vertex="1" parent="1">
          <mxGeometry x="-160" y="1080" width="320" height="40" as="geometry" />
        </mxCell>
        <mxCell id="P4oIJ3CgS1AJP2-OAXij-28" value="09_forecasted_dengue_dataframes_parallel.py" style="rounded=0;whiteSpace=wrap;html=1;fillColor=#D80073;strokeColor=#56517e;opacity=50;" vertex="1" parent="1">
          <mxGeometry x="-160" y="1160" width="320" height="40" as="geometry" />
        </mxCell>
        <mxCell id="P4oIJ3CgS1AJP2-OAXij-31" style="edgeStyle=orthogonalEdgeStyle;rounded=0;orthogonalLoop=1;jettySize=auto;html=1;entryX=0;entryY=0.5;entryDx=0;entryDy=0;" edge="1" parent="1" source="P4oIJ3CgS1AJP2-OAXij-29" target="P4oIJ3CgS1AJP2-OAXij-27">
          <mxGeometry relative="1" as="geometry" />
        </mxCell>
        <mxCell id="P4oIJ3CgS1AJP2-OAXij-32" style="edgeStyle=orthogonalEdgeStyle;rounded=0;orthogonalLoop=1;jettySize=auto;html=1;entryX=0;entryY=0.5;entryDx=0;entryDy=0;" edge="1" parent="1" source="P4oIJ3CgS1AJP2-OAXij-29" target="P4oIJ3CgS1AJP2-OAXij-28">
          <mxGeometry relative="1" as="geometry" />
        </mxCell>
        <mxCell id="P4oIJ3CgS1AJP2-OAXij-29" value="07_forecasted_dataframes_non_draw_part.py" style="rounded=0;whiteSpace=wrap;html=1;fillColor=#D80073;strokeColor=#56517e;opacity=50;" vertex="1" parent="1">
          <mxGeometry x="-520" y="1120" width="320" height="40" as="geometry" />
        </mxCell>
        <mxCell id="P4oIJ3CgS1AJP2-OAXij-33" style="edgeStyle=orthogonalEdgeStyle;rounded=0;orthogonalLoop=1;jettySize=auto;html=1;entryX=0.5;entryY=1;entryDx=0;entryDy=0;" edge="1" parent="1" source="P4oIJ3CgS1AJP2-OAXij-30" target="P4oIJ3CgS1AJP2-OAXij-28">
          <mxGeometry relative="1" as="geometry" />
        </mxCell>
        <mxCell id="P4oIJ3CgS1AJP2-OAXij-35" style="edgeStyle=orthogonalEdgeStyle;rounded=0;orthogonalLoop=1;jettySize=auto;html=1;exitX=1;exitY=0.5;exitDx=0;exitDy=0;entryX=0;entryY=0.5;entryDx=0;entryDy=0;" edge="1" parent="1" source="P4oIJ3CgS1AJP2-OAXij-30" target="P4oIJ3CgS1AJP2-OAXij-34">
          <mxGeometry relative="1" as="geometry" />
        </mxCell>
        <mxCell id="P4oIJ3CgS1AJP2-OAXij-30" value="06_dengue_modeling_dataframe.py" style="rounded=0;whiteSpace=wrap;html=1;fillColor=#D80073;strokeColor=#56517e;opacity=50;" vertex="1" parent="1">
          <mxGeometry x="-160" y="1240" width="320" height="40" as="geometry" />
        </mxCell>
        <mxCell id="P4oIJ3CgS1AJP2-OAXij-36" style="edgeStyle=orthogonalEdgeStyle;rounded=0;orthogonalLoop=1;jettySize=auto;html=1;entryX=0.5;entryY=1;entryDx=0;entryDy=0;" edge="1" parent="1" source="P4oIJ3CgS1AJP2-OAXij-34" target="P4oIJ3CgS1AJP2-OAXij-18">
          <mxGeometry relative="1" as="geometry" />
        </mxCell>
        <mxCell id="P4oIJ3CgS1AJP2-OAXij-34" value="final_models_dengue.r" style="rounded=0;whiteSpace=wrap;html=1;fillColor=#b1ddf0;strokeColor=#10739e;opacity=50;" vertex="1" parent="1">
          <mxGeometry x="200" y="1240" width="320" height="40" as="geometry" />
        </mxCell>
        <mxCell id="P4oIJ3CgS1AJP2-OAXij-37" style="edgeStyle=orthogonalEdgeStyle;rounded=0;orthogonalLoop=1;jettySize=auto;html=1;exitX=1;exitY=0.5;exitDx=0;exitDy=0;entryX=0;entryY=0.5;entryDx=0;entryDy=0;" edge="1" parent="1" source="P4oIJ3CgS1AJP2-OAXij-38" target="P4oIJ3CgS1AJP2-OAXij-39">
          <mxGeometry relative="1" as="geometry" />
        </mxCell>
        <mxCell id="P4oIJ3CgS1AJP2-OAXij-40" style="edgeStyle=orthogonalEdgeStyle;rounded=0;orthogonalLoop=1;jettySize=auto;html=1;entryX=0.5;entryY=0;entryDx=0;entryDy=0;" edge="1" parent="1" source="P4oIJ3CgS1AJP2-OAXij-38" target="P4oIJ3CgS1AJP2-OAXij-27">
          <mxGeometry relative="1" as="geometry" />
        </mxCell>
        <mxCell id="P4oIJ3CgS1AJP2-OAXij-38" value="05_malaria_modeling_dataframe.py" style="rounded=0;whiteSpace=wrap;html=1;fillColor=#D80073;strokeColor=#56517e;opacity=50;" vertex="1" parent="1">
          <mxGeometry x="-160" y="1000" width="320" height="40" as="geometry" />
        </mxCell>
        <mxCell id="P4oIJ3CgS1AJP2-OAXij-41" style="edgeStyle=orthogonalEdgeStyle;rounded=0;orthogonalLoop=1;jettySize=auto;html=1;entryX=0.5;entryY=0;entryDx=0;entryDy=0;" edge="1" parent="1" source="P4oIJ3CgS1AJP2-OAXij-39" target="P4oIJ3CgS1AJP2-OAXij-13">
          <mxGeometry relative="1" as="geometry" />
        </mxCell>
        <mxCell id="P4oIJ3CgS1AJP2-OAXij-39" value="final_models_malaria.r" style="rounded=0;whiteSpace=wrap;html=1;fillColor=#b1ddf0;strokeColor=#10739e;opacity=50;" vertex="1" parent="1">
          <mxGeometry x="200" y="1000" width="320" height="40" as="geometry" />
        </mxCell>
        <mxCell id="P4oIJ3CgS1AJP2-OAXij-42" value="02_as_fhs_and_full_population.py" style="rounded=0;whiteSpace=wrap;html=1;fillColor=#D80073;strokeColor=#56517e;opacity=50;" vertex="1" parent="1">
          <mxGeometry x="-880" y="1080" width="320" height="40" as="geometry" />
        </mxCell>
        <mxCell id="P4oIJ3CgS1AJP2-OAXij-43" value="03_rake_aa_A2_to_GBD.py" style="rounded=0;whiteSpace=wrap;html=1;fillColor=#D80073;strokeColor=#56517e;opacity=50;" vertex="1" parent="1">
          <mxGeometry x="-880" y="1160" width="320" height="40" as="geometry" />
        </mxCell>
        <mxCell id="P4oIJ3CgS1AJP2-OAXij-44" value="01_make_full_hierarchy.py" style="rounded=0;whiteSpace=wrap;html=1;fillColor=#D80073;strokeColor=#56517e;opacity=50;" vertex="1" parent="1">
          <mxGeometry x="-880" y="1000" width="320" height="40" as="geometry" />
        </mxCell>
        <mxCell id="P4oIJ3CgS1AJP2-OAXij-45" value="04_rake_as_A2_to_GBD.py" style="rounded=0;whiteSpace=wrap;html=1;fillColor=#D80073;strokeColor=#56517e;opacity=50;" vertex="1" parent="1">
          <mxGeometry x="-880" y="1240" width="320" height="40" as="geometry" />
        </mxCell>
      </root>
    </mxGraphModel>
  </diagram>
</mxfile>
